<mxfile host="app.diagrams.net" agent="Mozilla/5.0 (Macintosh; Intel Mac OS X 10.15; rv:135.0) Gecko/20100101 Firefox/135.0" version="26.1.1">
  <diagram name="Page-1" id="28c0V_zp-TiMR2vPcXUR">
    <mxGraphModel dx="1056" dy="723" grid="1" gridSize="10" guides="1" tooltips="1" connect="1" arrows="1" fold="1" page="1" pageScale="1" pageWidth="850" pageHeight="1100" math="0" shadow="0">
      <root>
        <mxCell id="0" />
        <mxCell id="1" parent="0" />
        <mxCell id="guaXYUS1TbYIzlUZuqkM-14" value="&lt;br&gt;&lt;h1&gt;pre order traversal&lt;/h1&gt; 11425&lt;br&gt;&lt;h1&gt;post order traversal&lt;/h1&gt; 14251" style="text;whiteSpace=wrap;html=1;" vertex="1" parent="1">
          <mxGeometry x="490" y="350" width="400" height="180" as="geometry" />
        </mxCell>
        <mxCell id="guaXYUS1TbYIzlUZuqkM-16" value="BINARY TREES" style="text;html=1;align=center;verticalAlign=middle;resizable=0;points=[];autosize=1;strokeColor=none;fillColor=none;" vertex="1" parent="1">
          <mxGeometry x="720" y="20" width="110" height="30" as="geometry" />
        </mxCell>
        <mxCell id="guaXYUS1TbYIzlUZuqkM-18" value="&lt;h1&gt;&lt;font style=&quot;font-size: 13px;&quot; face=&quot;Helvetica&quot;&gt; &lt;/font&gt;&lt;font style=&quot;font-size: 27px;&quot; face=&quot;Helvetica&quot;&gt;In Order Traversal &lt;/font&gt;&lt;/h1&gt;&lt;p style=&quot;margin-left: 0px;&quot; align=&quot;left&quot;&gt;&lt;font style=&quot;line-height: 70%; font-size: 11px;&quot; face=&quot;Helvetica&quot;&gt;Starting at the root, 1, we descend down the left until we reach leaf. Once we &lt;br&gt;do reach a leaf, we begin to work our way back to the root displaying &lt;br&gt;our number. Here the deepest leaf after descending is found at a depth &lt;br&gt;of 1 with a data value of 1. We print this number and then find our way &lt;br&gt;back to the root. We take the value found at the root and display it. &lt;br&gt;Now that we have fully unraveled the left side of this tree, we will &lt;br&gt;begin descending down the right side. The first node on the right &lt;br&gt;contains the value 4. We do not stop here though. Since there are &lt;br&gt;children to this node, we want to find if there left and right &lt;br&gt;nodes; so we continue forward. Like before we start on the left again. &lt;br&gt;We arrive at the left node with value of 2 and determine that it is a &lt;br&gt;leaf. Because this node does not have children, we fall back out, but, &lt;br&gt;before doing that, we display the value from this node, 2. We fall back &lt;br&gt;to the node before, its&#39; parent, and then descend to the right. This &lt;br&gt;pattern continues until all nodes have been traversed. The resulting &lt;br&gt;numbers displayed are 11245. &lt;/font&gt;&lt;font style=&quot;line-height: 70%; font-size: 11px;&quot; face=&quot;Helvetica&quot;&gt;&lt;br&gt;&lt;/font&gt;&lt;/p&gt;&lt;div&gt;&lt;font style=&quot;font-size: 13px;&quot; face=&quot;Helvetica&quot;&gt;&lt;br&gt;&lt;/font&gt;&lt;/div&gt;&lt;div&gt;&lt;font style=&quot;font-size: 13px;&quot; face=&quot;Helvetica&quot;&gt;1 1 2 4 5&lt;/font&gt;&lt;/div&gt;" style="text;whiteSpace=wrap;html=1;" vertex="1" parent="1">
          <mxGeometry x="320" y="50" width="490" height="360" as="geometry" />
        </mxCell>
        <mxCell id="guaXYUS1TbYIzlUZuqkM-19" value="" style="group" vertex="1" connectable="0" parent="1">
          <mxGeometry x="30" y="60" width="270" height="270" as="geometry" />
        </mxCell>
        <mxCell id="guaXYUS1TbYIzlUZuqkM-20" style="edgeStyle=orthogonalEdgeStyle;rounded=0;orthogonalLoop=1;jettySize=auto;html=1;exitX=1;exitY=0.5;exitDx=0;exitDy=0;entryX=0.5;entryY=0;entryDx=0;entryDy=0;" edge="1" parent="guaXYUS1TbYIzlUZuqkM-19" source="guaXYUS1TbYIzlUZuqkM-22" target="guaXYUS1TbYIzlUZuqkM-25">
          <mxGeometry relative="1" as="geometry" />
        </mxCell>
        <mxCell id="guaXYUS1TbYIzlUZuqkM-21" style="edgeStyle=orthogonalEdgeStyle;rounded=0;orthogonalLoop=1;jettySize=auto;html=1;exitX=0;exitY=0.5;exitDx=0;exitDy=0;entryX=0.5;entryY=0;entryDx=0;entryDy=0;" edge="1" parent="guaXYUS1TbYIzlUZuqkM-19" source="guaXYUS1TbYIzlUZuqkM-22" target="guaXYUS1TbYIzlUZuqkM-26">
          <mxGeometry relative="1" as="geometry" />
        </mxCell>
        <mxCell id="guaXYUS1TbYIzlUZuqkM-22" value="1" style="ellipse;whiteSpace=wrap;html=1;aspect=fixed;fontSize=26;fontStyle=1" vertex="1" parent="guaXYUS1TbYIzlUZuqkM-19">
          <mxGeometry x="82.17391304347827" width="70.43478260869566" height="70.43478260869566" as="geometry" />
        </mxCell>
        <mxCell id="guaXYUS1TbYIzlUZuqkM-23" style="edgeStyle=orthogonalEdgeStyle;rounded=0;orthogonalLoop=1;jettySize=auto;html=1;exitX=1;exitY=0.5;exitDx=0;exitDy=0;entryX=0.5;entryY=0;entryDx=0;entryDy=0;" edge="1" parent="guaXYUS1TbYIzlUZuqkM-19" source="guaXYUS1TbYIzlUZuqkM-25" target="guaXYUS1TbYIzlUZuqkM-27">
          <mxGeometry relative="1" as="geometry" />
        </mxCell>
        <mxCell id="guaXYUS1TbYIzlUZuqkM-24" style="edgeStyle=orthogonalEdgeStyle;rounded=0;orthogonalLoop=1;jettySize=auto;html=1;exitX=0;exitY=0.5;exitDx=0;exitDy=0;" edge="1" parent="guaXYUS1TbYIzlUZuqkM-19" source="guaXYUS1TbYIzlUZuqkM-25" target="guaXYUS1TbYIzlUZuqkM-28">
          <mxGeometry relative="1" as="geometry" />
        </mxCell>
        <mxCell id="guaXYUS1TbYIzlUZuqkM-25" value="4" style="ellipse;whiteSpace=wrap;html=1;aspect=fixed;fontSize=26;fontStyle=1" vertex="1" parent="guaXYUS1TbYIzlUZuqkM-19">
          <mxGeometry x="140.8695652173913" y="93.91304347826087" width="70.43478260869566" height="70.43478260869566" as="geometry" />
        </mxCell>
        <mxCell id="guaXYUS1TbYIzlUZuqkM-26" value="1" style="ellipse;whiteSpace=wrap;html=1;aspect=fixed;fontSize=26;fontStyle=1" vertex="1" parent="guaXYUS1TbYIzlUZuqkM-19">
          <mxGeometry y="93.91304347826087" width="70.43478260869566" height="70.43478260869566" as="geometry" />
        </mxCell>
        <mxCell id="guaXYUS1TbYIzlUZuqkM-27" value="5" style="ellipse;whiteSpace=wrap;html=1;aspect=fixed;fontSize=26;fontStyle=1" vertex="1" parent="guaXYUS1TbYIzlUZuqkM-19">
          <mxGeometry x="199.56521739130437" y="199.56521739130437" width="70.43478260869566" height="70.43478260869566" as="geometry" />
        </mxCell>
        <mxCell id="guaXYUS1TbYIzlUZuqkM-28" value="2" style="ellipse;whiteSpace=wrap;html=1;aspect=fixed;fontSize=26;fontStyle=1" vertex="1" parent="guaXYUS1TbYIzlUZuqkM-19">
          <mxGeometry x="76.30434782608697" y="199.56521739130437" width="70.43478260869566" height="70.43478260869566" as="geometry" />
        </mxCell>
        <mxCell id="guaXYUS1TbYIzlUZuqkM-41" value="" style="group" vertex="1" connectable="0" parent="1">
          <mxGeometry x="180" y="450" width="245" height="60" as="geometry" />
        </mxCell>
        <mxCell id="guaXYUS1TbYIzlUZuqkM-29" value="Start at the root node" style="text;html=1;align=center;verticalAlign=middle;resizable=0;points=[];autosize=1;strokeColor=none;fillColor=none;" vertex="1" parent="guaXYUS1TbYIzlUZuqkM-41">
          <mxGeometry width="140" height="30" as="geometry" />
        </mxCell>
        <mxCell id="guaXYUS1TbYIzlUZuqkM-1" value="1" style="ellipse;whiteSpace=wrap;html=1;aspect=fixed;fillColor=#00C400;strokeColor=none;gradientColor=none;fontStyle=1;fontSize=24;" vertex="1" parent="guaXYUS1TbYIzlUZuqkM-41">
          <mxGeometry x="185" width="60" height="60" as="geometry" />
        </mxCell>
        <mxCell id="guaXYUS1TbYIzlUZuqkM-42" value="" style="group" vertex="1" connectable="0" parent="1">
          <mxGeometry x="185" y="560" width="330" height="170" as="geometry" />
        </mxCell>
        <mxCell id="guaXYUS1TbYIzlUZuqkM-35" value="descend to the left" style="text;html=1;align=center;verticalAlign=middle;resizable=0;points=[];autosize=1;strokeColor=none;fillColor=none;" vertex="1" parent="guaXYUS1TbYIzlUZuqkM-42">
          <mxGeometry width="120" height="30" as="geometry" />
        </mxCell>
        <mxCell id="guaXYUS1TbYIzlUZuqkM-36" style="edgeStyle=orthogonalEdgeStyle;rounded=1;orthogonalLoop=1;jettySize=auto;html=1;exitX=0;exitY=0.5;exitDx=0;exitDy=0;curved=0;flowAnimation=1;" edge="1" parent="guaXYUS1TbYIzlUZuqkM-42" source="guaXYUS1TbYIzlUZuqkM-37">
          <mxGeometry relative="1" as="geometry">
            <mxPoint x="130" y="110" as="targetPoint" />
          </mxGeometry>
        </mxCell>
        <mxCell id="guaXYUS1TbYIzlUZuqkM-37" value="1" style="ellipse;whiteSpace=wrap;html=1;aspect=fixed;fillColor=#00C400;strokeColor=none;gradientColor=none;fontStyle=1;fontSize=24;" vertex="1" parent="guaXYUS1TbYIzlUZuqkM-42">
          <mxGeometry x="175" width="60" height="60" as="geometry" />
        </mxCell>
        <mxCell id="guaXYUS1TbYIzlUZuqkM-38" value="1" style="ellipse;whiteSpace=wrap;html=1;aspect=fixed;fillColor=#f5f5f5;strokeColor=#666666;fontStyle=1;fontSize=24;fontColor=#333333;" vertex="1" parent="guaXYUS1TbYIzlUZuqkM-42">
          <mxGeometry x="100" y="110" width="60" height="60" as="geometry" />
        </mxCell>
        <mxCell id="guaXYUS1TbYIzlUZuqkM-39" value="we reach child of root" style="text;html=1;align=center;verticalAlign=middle;resizable=0;points=[];autosize=1;strokeColor=none;fillColor=none;" vertex="1" parent="guaXYUS1TbYIzlUZuqkM-42">
          <mxGeometry x="190" y="110" width="140" height="30" as="geometry" />
        </mxCell>
        <mxCell id="guaXYUS1TbYIzlUZuqkM-65" value="" style="group" vertex="1" connectable="0" parent="1">
          <mxGeometry x="30" y="750" width="310" height="240" as="geometry" />
        </mxCell>
        <mxCell id="guaXYUS1TbYIzlUZuqkM-44" value="we continue descending left &lt;br&gt;until we reach a null pointer" style="text;html=1;align=center;verticalAlign=middle;resizable=0;points=[];autosize=1;strokeColor=none;fillColor=none;" vertex="1" parent="guaXYUS1TbYIzlUZuqkM-65">
          <mxGeometry y="55" width="170" height="40" as="geometry" />
        </mxCell>
        <mxCell id="guaXYUS1TbYIzlUZuqkM-45" style="edgeStyle=orthogonalEdgeStyle;rounded=1;orthogonalLoop=1;jettySize=auto;html=1;exitX=0;exitY=0.5;exitDx=0;exitDy=0;curved=0;flowAnimation=0;" edge="1" parent="guaXYUS1TbYIzlUZuqkM-65" source="guaXYUS1TbYIzlUZuqkM-46">
          <mxGeometry relative="1" as="geometry">
            <mxPoint x="175" y="110" as="targetPoint" />
          </mxGeometry>
        </mxCell>
        <mxCell id="guaXYUS1TbYIzlUZuqkM-46" value="1" style="ellipse;whiteSpace=wrap;html=1;aspect=fixed;fillColor=#00C400;strokeColor=none;gradientColor=none;fontStyle=1;fontSize=24;" vertex="1" parent="guaXYUS1TbYIzlUZuqkM-65">
          <mxGeometry x="220" width="60" height="60" as="geometry" />
        </mxCell>
        <mxCell id="guaXYUS1TbYIzlUZuqkM-47" value="1" style="ellipse;whiteSpace=wrap;html=1;aspect=fixed;fillColor=#f5f5f5;strokeColor=#666666;fontStyle=1;fontSize=24;fontColor=#333333;" vertex="1" parent="guaXYUS1TbYIzlUZuqkM-65">
          <mxGeometry x="145" y="110" width="60" height="60" as="geometry" />
        </mxCell>
        <mxCell id="guaXYUS1TbYIzlUZuqkM-52" value="" style="edgeStyle=orthogonalEdgeStyle;rounded=1;orthogonalLoop=1;jettySize=auto;html=1;exitX=0;exitY=0.5;exitDx=0;exitDy=0;flowAnimation=1;curved=0;entryX=0;entryY=0.5;entryDx=0;entryDy=0;" edge="1" parent="guaXYUS1TbYIzlUZuqkM-65" source="guaXYUS1TbYIzlUZuqkM-47" target="guaXYUS1TbYIzlUZuqkM-59">
          <mxGeometry relative="1" as="geometry">
            <mxPoint x="90" y="200" as="targetPoint" />
            <mxPoint x="145" y="140" as="sourcePoint" />
          </mxGeometry>
        </mxCell>
        <mxCell id="guaXYUS1TbYIzlUZuqkM-62" value="" style="group" vertex="1" connectable="0" parent="guaXYUS1TbYIzlUZuqkM-65">
          <mxGeometry x="75" y="210" width="45" height="30" as="geometry" />
        </mxCell>
        <mxCell id="guaXYUS1TbYIzlUZuqkM-59" value="" style="triangle;whiteSpace=wrap;html=1;rotation=90;fillColor=#f8cecc;strokeColor=#b85450;" vertex="1" parent="guaXYUS1TbYIzlUZuqkM-62">
          <mxGeometry x="7.5" y="-7.5" width="30" height="45" as="geometry" />
        </mxCell>
        <mxCell id="guaXYUS1TbYIzlUZuqkM-61" value="Null" style="text;html=1;align=center;verticalAlign=middle;whiteSpace=wrap;rounded=0;" vertex="1" parent="guaXYUS1TbYIzlUZuqkM-62">
          <mxGeometry x="7.5" width="30" height="15" as="geometry" />
        </mxCell>
        <mxCell id="guaXYUS1TbYIzlUZuqkM-63" value="in this case, we do, so we stop" style="text;html=1;align=center;verticalAlign=middle;resizable=0;points=[];autosize=1;strokeColor=none;fillColor=none;" vertex="1" parent="guaXYUS1TbYIzlUZuqkM-65">
          <mxGeometry x="120" y="210" width="190" height="30" as="geometry" />
        </mxCell>
        <mxCell id="guaXYUS1TbYIzlUZuqkM-66" value="" style="group" vertex="1" connectable="0" parent="1">
          <mxGeometry x="310" y="1010" width="310" height="240" as="geometry" />
        </mxCell>
        <mxCell id="guaXYUS1TbYIzlUZuqkM-68" style="edgeStyle=orthogonalEdgeStyle;rounded=1;orthogonalLoop=1;jettySize=auto;html=1;exitX=0;exitY=0.5;exitDx=0;exitDy=0;curved=0;flowAnimation=0;" edge="1" parent="guaXYUS1TbYIzlUZuqkM-66" source="guaXYUS1TbYIzlUZuqkM-69">
          <mxGeometry relative="1" as="geometry">
            <mxPoint x="175" y="110" as="targetPoint" />
          </mxGeometry>
        </mxCell>
        <mxCell id="guaXYUS1TbYIzlUZuqkM-69" value="1" style="ellipse;whiteSpace=wrap;html=1;aspect=fixed;fillColor=#00C400;strokeColor=none;gradientColor=none;fontStyle=1;fontSize=24;" vertex="1" parent="guaXYUS1TbYIzlUZuqkM-66">
          <mxGeometry x="220" width="60" height="60" as="geometry" />
        </mxCell>
        <mxCell id="guaXYUS1TbYIzlUZuqkM-70" value="1" style="ellipse;whiteSpace=wrap;html=1;aspect=fixed;fillColor=#f5f5f5;strokeColor=#666666;fontStyle=1;fontSize=24;fontColor=#333333;" vertex="1" parent="guaXYUS1TbYIzlUZuqkM-66">
          <mxGeometry x="145" y="110" width="60" height="60" as="geometry" />
        </mxCell>
        <mxCell id="guaXYUS1TbYIzlUZuqkM-71" value="" style="edgeStyle=orthogonalEdgeStyle;rounded=1;orthogonalLoop=1;jettySize=auto;html=1;exitX=0;exitY=0.5;exitDx=0;exitDy=0;flowAnimation=0;curved=0;entryX=0;entryY=0.5;entryDx=0;entryDy=0;" edge="1" parent="guaXYUS1TbYIzlUZuqkM-66" source="guaXYUS1TbYIzlUZuqkM-70" target="guaXYUS1TbYIzlUZuqkM-73">
          <mxGeometry relative="1" as="geometry">
            <mxPoint x="90" y="200" as="targetPoint" />
            <mxPoint x="145" y="140" as="sourcePoint" />
          </mxGeometry>
        </mxCell>
        <mxCell id="guaXYUS1TbYIzlUZuqkM-72" value="" style="group" vertex="1" connectable="0" parent="guaXYUS1TbYIzlUZuqkM-66">
          <mxGeometry x="75" y="210" width="45" height="30" as="geometry" />
        </mxCell>
        <mxCell id="guaXYUS1TbYIzlUZuqkM-73" value="" style="triangle;whiteSpace=wrap;html=1;rotation=90;fillColor=#f8cecc;strokeColor=#b85450;" vertex="1" parent="guaXYUS1TbYIzlUZuqkM-72">
          <mxGeometry x="7.5" y="-7.5" width="30" height="45" as="geometry" />
        </mxCell>
        <mxCell id="guaXYUS1TbYIzlUZuqkM-74" value="Null" style="text;html=1;align=center;verticalAlign=middle;whiteSpace=wrap;rounded=0;" vertex="1" parent="guaXYUS1TbYIzlUZuqkM-72">
          <mxGeometry x="7.5" width="30" height="15" as="geometry" />
        </mxCell>
        <mxCell id="guaXYUS1TbYIzlUZuqkM-76" value="we now walk backwards" style="text;html=1;align=center;verticalAlign=middle;resizable=0;points=[];autosize=1;strokeColor=none;fillColor=none;" vertex="1" parent="1">
          <mxGeometry x="175" y="1148" width="150" height="30" as="geometry" />
        </mxCell>
      </root>
    </mxGraphModel>
  </diagram>
</mxfile>
